<svg xmlns="http://www.w3.org/2000/svg" width="27" height="12" viewBox="0 0 27 12">
    <g fill="none" fill-rule="evenodd">
        <g>
            <g>
                <g>
                    <path fill="#F2F4F7" d="M10.238 0c.42 0 .762.341.762.763l-.001 2.236h2L13 .762c0-.42.341-.762.762-.762h.476c.42 0 .762.341.762.762L14.999 3 17.238 3c.42 0 .762.341.762.763v.474c0 .422-.341.763-.762.763H17v2c0 2.761-2.239 5-5 5S7 9.761 7 7V5h-.237C6.34 5 6 4.659 6 4.237v-.474C6 3.34 6.341 3 6.763 3l2.236-.001L9 .763C9 .34 9.341 0 9.762 0h.476z" transform="translate(-1984 -2722) translate(1974 2716) translate(11 6) rotate(90 12 6)"/>
                    <path fill="#F2F4F7" d="M21.697 2.19c.038-.105.172-.19.3-.19h2.734c.127 0 .19.084.143.185l-1.423 3.03c-.048.103.017.186.141.186h2.281c.126 0 .165.07.085.157l-4.762 5.218c-.315.346-.447.284-.294-.136l1.252-3.45c.038-.104-.035-.19-.158-.19h-1.828c-.125 0-.195-.086-.158-.19l1.687-4.62z" transform="translate(-1984 -2722) translate(1974 2716) translate(11 6)"/>
                    <path stroke="#F2F4F7" stroke-width="2" d="M8 6C4 5 1 7 0 9" transform="translate(-1984 -2722) translate(1974 2716) translate(11 6)"/>
                </g>
            </g>
        </g>
    </g>
</svg>
