<svg xmlns="http://www.w3.org/2000/svg" width="24" height="24" viewBox="0 0 24 24">
  <g fill="none" fill-rule="evenodd">
    <g>
      <path fill="#F2F4F7" d="M0 0H720V810H0z" transform="translate(-91 -24)"/>
      <path fill="#353738" d="M0 0H720V72H0z" transform="translate(-91 -24)"/>
      <g fill="#FFF" fill-rule="nonzero">
        <path
          d="M7.293 3.293c.36-.36.928-.388 1.32-.083l.094.083 8 8c.36.36.388.928.083 1.32l-.083.094-8 8c-.39.39-1.024.39-1.414 0-.36-.36-.388-.928-.083-1.32l.083-.094L14.586 12 7.293 4.707c-.36-.36-.388-.928-.083-1.32l.083-.094z"
          transform="translate(-91 -24) translate(91 24) rotate(-180 12 12)"/>
      </g>
    </g>
  </g>
</svg>
