<svg xmlns="http://www.w3.org/2000/svg" width="22" height="21" viewBox="0 0 22 21">
						<g fill="none" fill-rule="evenodd">
							<g fill="#5E79AA">
								<path d="M1839.91 2697.816c1.99 1.302 3.74 2.165 3.98 1.97l3.343 8.4c.083.209.229.387.417.511l2.864 1.885c.928.61 1.486 1.646 1.486 2.757v1.561c0 .608-.492 1.1-1.1 1.1h-4.141c-1.835 0-3.587-.764-4.836-2.109l-4.421-4.76c-.297-.32-.798-.338-1.119-.04-.014.012-.028.026-.04.04l-.04.042c-.33.357-.857.453-1.294.237-1.901-.94-3.398-2.23-4.49-3.87l-.214-.333c-.438-.71-.402-1.616.092-2.29l.348-.473c.87-1.174 2.716-3.56 5.534-7.159l.224-.285c.057.368 1.507 1.573 3.407 2.816z" transform="translate(-1830 -2695)"></path>
							</g>
						</g>
					</svg>