<svg xmlns="http://www.w3.org/2000/svg" width="24" height="18" viewBox="0 0 24 18">
						<g fill="none" fill-rule="evenodd">
							<g fill="#5E79AA">
								<path d="M1777 2731c1.105 0 2 .895 2 2v14c0 1.105-.895 2-2 2h-20c-1.105 0-2-.895-2-2v-14c0-1.105.895-2 2-2h20zm-8.144 8.385c-.24-.094-.51.023-.605.262l-.176.447c-.15.382-.52.633-.93.633l-3.145-.001V2745c0 .552.448 1 1 1h10c.552 0 1-.448 1-1v-4.274h-2.128c-.394 0-.75.232-.912.59l-.7 1.557c-.105.234-.296.419-.534.516-.511.209-1.095-.037-1.304-.548l-1.306-3.199c-.048-.117-.142-.21-.26-.257zM1759.5 2741c-.828 0-1.5.672-1.5 1.5s.672 1.5 1.5 1.5 1.5-.672 1.5-1.5-.672-1.5-1.5-1.5zm15.5-7h-10c-.552 0-1 .448-1 1v4.42h2.231c.41 0 .78-.25.93-.632l.623-1.578c.096-.242.286-.434.527-.533.488-.199 1.045.035 1.244.523l1.35 3.308c.051.123.147.222.268.277.262.117.569 0 .686-.26l.231-.514c.162-.36.519-.59.912-.59l2.998-.001V2735c0-.552-.448-1-1-1zm-15.5 2c-.828 0-1.5.672-1.5 1.5s.672 1.5 1.5 1.5 1.5-.672 1.5-1.5-.672-1.5-1.5-1.5z" transform="translate(-1755 -2731)"></path>
							</g>
						</g>
					</svg>