<svg xmlns="http://www.w3.org/2000/svg" width="24" height="24" viewBox="0 0 24 24">
					<g fill="none" fill-rule="evenodd">
						<g fill="#4ABD7E">
							<path d="M1629 2596c6.627 0 12 5.373 12 12s-5.373 12-12 12-12-5.373-12-12 5.373-12 12-12zm0 5c-3.314 0-6 2.612-6 5.833 0 1.314.446 2.526 1.2 3.5v3.5c0 .645.537 1.167 1.2 1.167h7.2c.663 0 1.2-.522 1.2-1.167l.001-3.5c.753-.975 1.199-2.187 1.199-3.5 0-3.221-2.686-5.833-6-5.833zm-7.499 3.032c-.535-.138-1.08.184-1.218.72-.187.728-.283 1.482-.283 2.248 0 .766.096 1.52.284 2.25.137.535.683.856 1.217.719.535-.138.857-.683.72-1.218-.146-.567-.221-1.154-.221-1.751s.075-1.184.22-1.75c.138-.535-.184-1.08-.719-1.218zm16.216.72c-.138-.536-.683-.858-1.218-.72-.535.138-.857.683-.72 1.218.146.566.221 1.153.221 1.75s-.075 1.184-.22 1.751c-.138.535.184 1.08.719 1.218.534.137 1.08-.184 1.217-.72.188-.729.284-1.483.284-2.249s-.096-1.52-.283-2.249zM1629 2606c.552 0 1 .448 1 1s-.448 1-1 1-1-.448-1-1 .448-1 1-1z" transform="translate(-1617 -2596)"></path>
						</g>
					</g>
				</svg>