<svg xmlns="http://www.w3.org/2000/svg" width="24" height="24" viewBox="0 0 24 24">
					<g fill="none" fill-rule="evenodd">
						<g fill="#4ABD7E">
							<path d="M1789 2596c6.627 0 12 5.373 12 12s-5.373 12-12 12-12-5.373-12-12 5.373-12 12-12zm3 4h-.667c-.552 0-1 .448-1 1v.333h-2.666c-3.682 0-6.667 2.985-6.667 6.667s2.985 6.667 6.667 6.667h2.666v.333c0 .552.448 1 1 1h.667c.552 0 1-.448 1-1l.001-3.001 2.999.001c.552 0 1-.448 1-1v-.667c0-.552-.448-1-1-1h-2.999v-2.667H1796c.552 0 1-.447 1-1V2605c0-.552-.448-1-1-1l-2.999-.001L1793 2601c0-.552-.448-1-1-1zm-5 6c1.105 0 2 .895 2 2s-.895 2-2 2-2-.895-2-2 .895-2 2-2z" transform="translate(-1777 -2596)"></path>
						</g>
					</g>
				</svg>