<svg xmlns="http://www.w3.org/2000/svg" width="24" height="24" viewBox="0 0 24 24">
    <g fill="none" fill-rule="evenodd">
        <g fill="#4ABD7E">
            <path d="M1829 2636c6.627 0 12 5.373 12 12s-5.373 12-12 12-12-5.373-12-12 5.373-12 12-12zm0 3l-.223.005c-2.658.11-4.777 2.182-4.777 4.722V2646h-1c-.552 0-1 .448-1 1v7c0 .552.448 1 1 1h12c.552 0 1-.448 1-1v-7c0-.552-.448-1-1-1h-1v-2.273l-.005-.21c-.116-2.513-2.308-4.517-4.995-4.517zm0 10c.552 0 1 .448 1 1v1l-.007.117c-.057.497-.48.883-.993.883-.552 0-1-.448-1-1v-1l.007-.117c.057-.497.48-.883.993-.883zm0-8l.183.005c1.572.08 2.817 1.199 2.817 2.566V2646h-6v-2.429l.005-.156c.095-1.347 1.4-2.415 2.995-2.415z" transform="translate(-1817 -2636)"/>
        </g>
    </g>
</svg>
