<svg xmlns="http://www.w3.org/2000/svg" width="24" height="24" viewBox="0 0 24 24">
    <g fill="none" fill-rule="evenodd">
        <g fill="#4ABD7E">
            <path d="M1749 2636c6.627 0 12 5.373 12 12s-5.373 12-12 12-12-5.373-12-12 5.373-12 12-12zm5.207 5.207c-.39-.39-1.024-.39-1.414 0l-10.586 10.586c-.39.39-.39 1.024 0 1.414l1.586 1.586c.39.39 1.024.39 1.414 0l10.586-10.586c.39-.39.39-1.024 0-1.414zM1754 2650c-1.333 1.264-2 2.264-2 3 0 1.105.895 2 2 2s2-.895 2-2c0-.736-.667-1.736-2-3zm-10-9c-1.333 1.264-2 2.264-2 3 0 1.105.895 2 2 2s2-.895 2-2c0-.736-.667-1.736-2-3z" transform="translate(-1737 -2636)"/>
        </g>
    </g>
</svg>
