<svg xmlns="http://www.w3.org/2000/svg" width="24" height="24" viewBox="0 0 24 24">
    <g fill="none" fill-rule="evenodd">
        <g fill="#4ABD7E">
            <path d="M1709 2596c6.627 0 12 5.373 12 12s-5.373 12-12 12-12-5.373-12-12 5.373-12 12-12zm-1.472 4.22c-.459-.4-1.08-.239-1.387.359l-2.926 5.704c-.138.269-.349.461-.59.54L1699 2608l4.476 1.163c.327.085.666-.048.902-.355l.734-.953c.053-.07.112-.13.176-.182.468-.382 1.085-.197 1.378.412l3.514 7.304c.075.156.174.29.292.392.459.399 1.08.238 1.387-.36l2.926-5.704c.138-.269.349-.461.59-.54L1719 2608l-4.476-1.163c-.327-.085-.666.048-.902.355l-.734.953c-.053.07-.112.13-.176.182-.468.382-1.085.197-1.378-.412l-3.514-7.304c-.075-.156-.174-.29-.292-.392z" transform="translate(-1697 -2596)"/>
        </g>
    </g>
</svg>
