<svg xmlns="http://www.w3.org/2000/svg" width="24" height="24" viewBox="0 0 24 24">
    <g fill="none" fill-rule="evenodd">
        <g fill="#4ABD7E">
            <path d="M1669 2636c6.627 0 12 5.373 12 12s-5.373 12-12 12-12-5.373-12-12 5.373-12 12-12zm.303 4c-1.112 0-2.132.137-3.047.403.071.299.11.61.11.93 0 2.21-1.802 4-4.025 4-.334 0-.66-.04-.972-.118-.243.836-.369 1.764-.369 2.78 0 5.1 3.177 8.005 8.303 8.005 3.938 0 6.922-2.017 7.631-5.097l.048-.227.015-.115c.037-.497-.304-.953-.805-1.048-.062-.012-.124-.018-.187-.018h-2.39l-.148.007c-.535.051-1.006.378-1.24.862l-.059.135-.075.186c-.485 1.092-1.5 1.746-2.778 1.746-2.041 0-3.305-1.65-3.305-4.447 0-2.765 1.275-4.415 3.293-4.415 1.262 0 2.27.64 2.755 1.685l.076.178.06.134c.28.565.858.928 1.497.928h2.314l.114-.006c.485-.057.861-.469.861-.97l-.004-.09-.013-.092-.047-.227c-.71-3.076-3.749-5.109-7.613-5.109zm-6.803 0c-.828 0-1.5.672-1.5 1.5s.672 1.5 1.5 1.5 1.5-.672 1.5-1.5-.672-1.5-1.5-1.5z" transform="translate(-1657 -2636)"/>
        </g>
    </g>
</svg>
