<svg xmlns="http://www.w3.org/2000/svg" width="24" height="24" viewBox="0 0 24 24">
    <g fill="none" fill-rule="evenodd">
        <g fill="#4ABD7E">
            <path d="M1629 2636c6.627 0 12 5.373 12 12s-5.373 12-12 12-12-5.373-12-12 5.373-12 12-12zm3.462 4h-5.47c-.254 0-.521.158-.598.352l-3.374 8.574c-.075.191.065.353.316.353h3.655c.246 0 .393.157.317.35l-1.296 5.703c-.305.78-.042.894.588.253l8.316-8.984c.16-.163.083-.292-.17-.292h-4.561c-.25 0-.38-.153-.284-.343l2.847-5.622c.095-.188-.032-.344-.286-.344z" transform="translate(-1617 -2636)"/>
        </g>
    </g>
</svg>
