<svg xmlns="http://www.w3.org/2000/svg" width="24" height="24" viewBox="0 0 24 24">
					<g fill="none" fill-rule="evenodd">
						<g fill="#4ABD7E">
							<path d="M1829 2596c6.627 0 12 5.373 12 12s-5.373 12-12 12-12-5.373-12-12 5.373-12 12-12zm0 3c-4 3.629-6 7.222-6 10.78 0 3.516 1.984 6.461 4.645 7.22-.785-.711-1.312-2.021-1.312-3.52 0-2.257 1.194-4.086 2.667-4.086 1.473 0 2.667 1.83 2.667 4.086 0 1.499-.527 2.809-1.312 3.52 2.66-.759 4.645-3.704 4.645-7.22 0-3.582-2-7.175-6-10.78z" transform="translate(-1817 -2596)"></path>
						</g>
					</g>
				</svg>