<svg xmlns="http://www.w3.org/2000/svg" width="24" height="24" viewBox="0 0 24 24">
					<g fill="none" fill-rule="evenodd">
						<g fill="#4ABD7E">
							<path d="M1789 2636c6.627 0 12 5.373 12 12s-5.373 12-12 12-12-5.373-12-12 5.373-12 12-12zm0 3c-.552 0-1 .448-1 1v.062c-3.619.451-6.487 3.32-6.938 6.938H1781c-.552 0-1 .448-1 1s.448 1 1 1l.062.001c.452 3.618 3.32 6.486 6.938 6.937v.062c0 .552.448 1 1 1s1-.448 1-1l.001-.062c3.618-.452 6.485-3.32 6.937-6.937l.062-.001c.552 0 1-.448 1-1s-.448-1-1-1h-.062c-.451-3.618-3.319-6.486-6.937-6.938L1790 2640c0-.552-.448-1-1-1zm1.001 4.1c1.959.398 3.501 1.941 3.899 3.9h-1.9c-.552 0-1 .448-1 1s.448 1 1 1l1.9.001c-.398 1.958-1.94 3.5-3.899 3.899l-.001-1.9c0-.552-.448-1-1-1s-1 .448-1 1v1.9c-1.959-.398-3.502-1.94-3.9-3.899l1.9-.001c.552 0 1-.448 1-1s-.448-1-1-1h-1.9c.398-1.96 1.94-3.502 3.9-3.9v1.9c0 .552.448 1 1 1s1-.448 1-1z" transform="translate(-1777 -2636)"></path>
						</g>
					</g>
				</svg>