<svg xmlns="http://www.w3.org/2000/svg" width="24" height="24" viewBox="0 0 24 24">
					<g fill="none" fill-rule="evenodd">
						<g fill="#4ABD7E">
							<path d="M1669 2596c6.627 0 12 5.373 12 12s-5.373 12-12 12-12-5.373-12-12 5.373-12 12-12zm4.9 5h-9.8c.016.1 0 .577 0 .682 0 1.074-1.018 2.045-2.1 2.045v2.046c0 3.915 2.077 7.317 5.467 9.32l1.533.907 1.533-.906c3.39-2.004 5.467-5.406 5.467-9.321v-2.046c-1.082 0-2.1-.971-2.1-2.045 0-.105-.016-.582 0-.682z" transform="translate(-1657 -2596)"></path>
						</g>
					</g>
				</svg>