<svg xmlns="http://www.w3.org/2000/svg" width="24" height="24" viewBox="0 0 24 24">
					<g fill="none" fill-rule="evenodd">
						<g fill="#4ABD7E">
							<path d="M1869 2636c6.627 0 12 5.373 12 12s-5.373 12-12 12-12-5.373-12-12 5.373-12 12-12zm3.375 6h-6.75c-3.107 0-5.625 2.686-5.625 6s2.518 6 5.625 6h6.75c3.107 0 5.625-2.686 5.625-6s-2.518-6-5.625-6zm.125 2c1.933 0 3.5 1.79 3.5 4s-1.567 4-3.5 4h-7c-1.933 0-3.5-1.79-3.5-4s1.567-4 3.5-4h7zm-.5 1c-1.657 0-3 1.343-3 3s1.343 3 3 3 3-1.343 3-3-1.343-3-3-3z" transform="translate(-1857 -2636)"></path>
						</g>
					</g>
				</svg>