<svg xmlns="http://www.w3.org/2000/svg" width="24" height="24" viewBox="0 0 24 24">
					<g fill="none" fill-rule="evenodd">
						<g fill="#4ABD7E">
							<path d="M1709 2636c6.627 0 12 5.373 12 12s-5.373 12-12 12-12-5.373-12-12 5.373-12 12-12zm-2.929 4.218c-.54-.12-1.073.221-1.192.76l-2.61 11.806c-.016.071-.024.143-.024.216 0 .552.448 1 1 1H1715c.552 0 1-.448 1-1v-2.898c0-.552-.448-1-1-1h-6.926l1.562-7.065c.12-.539-.22-1.072-.758-1.192l-2.805-.627z" transform="translate(-1697 -2636)"></path>
						</g>
					</g>
				</svg>