<svg xmlns="http://www.w3.org/2000/svg" width="40" height="40" viewBox="0 0 40 40">
    <g fill="none" fill-rule="evenodd">
        <g fill-rule="nonzero">
            <path d="M1861 2826c10.93 0 19.813 8.769 19.997 19.656l.003.344c0 1.657-1.343 3-3 3s-3-1.343-3-3c0-7.732-6.268-14-14-14s-14 6.268-14 14 6.268 14 14 14c6.26 0 11.562-4.11 13.352-9.778l5.723 1.808c-2.558 8.099-10.13 13.97-19.075 13.97-11.046 0-20-8.954-20-20s8.954-20 20-20z" transform="translate(-1841 -2826)"/>
        </g>
    </g>
</svg>
