<svg xmlns="http://www.w3.org/2000/svg" width="24" height="24" viewBox="0 0 24 24">
    <g fill="none" fill-rule="evenodd">
        <g fill="#5E79AA">
            <g>
                <path d="M7 20v2H3v-2h4zm14 0v2h-4v-2h4zm2-10v8c0 .552-.448 1-1 1H2c-.552 0-1-.448-1-1v-8h22zM4 12c-.552 0-1 .448-1 1s.448 1 1 1 1-.448 1-1-.448-1-1-1zm4 0c-.552 0-1 .448-1 1s.448 1 1 1 1-.448 1-1-.448-1-1-1zm14-7c.552 0 1 .448 1 1v2H1V6c0-.552.448-1 1-1h20z" transform="translate(-1617 -2866) translate(1617 2866)"/>
            </g>
        </g>
    </g>
</svg>
