 <svg xmlns="http://www.w3.org/2000/svg" width="32" height="32" viewBox="0 0 32 32" style="">
                        <g fill="none" fill-rule="evenodd">

                                                <path fill="#c94e60" d="M9.333 0L16 5.333v9.334h-5.333V9.333H8v5.334H2.667V5.333L9.333 0z" transform="translate(-32 -132) translate(0 80) translate(0 36) translate(32 16) translate(6.667 6.667)"/>
                                                <path fill="#FFFFFF" d="M13.333 1.333H16V5.333H13.333z" transform="translate(-32 -132) translate(0 80) translate(0 36) translate(32 16) translate(6.667 6.667)"/>
                                                <path fill="#c94e60" fill-rule="nonzero" d="M0 5.794L9.333 0 18.667 5.794 17.087 8 9.333 3.187 1.58 8z" transform="translate(-32 -132) translate(0 80) translate(0 36) translate(32 16) translate(6.667 6.667)"/>

                        </g>
                    </svg>